<?xml version="1.0" encoding="UTF-8" standalone="no"?><svg xmlns="http://www.w3.org/2000/svg" xmlns:xlink="http://www.w3.org/1999/xlink" contentScriptType="application/ecmascript" contentStyleType="text/css" height="842px" preserveAspectRatio="none" style="width:1067px;height:842px;" version="1.1" viewBox="0 0 1067 842" width="1067px" zoomAndPan="magnify"><defs><filter height="300%" id="f1umviutdct195" width="300%" x="-1" y="-1"><feGaussianBlur result="blurOut" stdDeviation="2.0"/><feColorMatrix in="blurOut" result="blurOut2" type="matrix" values="0 0 0 0 0 0 0 0 0 0 0 0 0 0 0 0 0 0 .4 0"/><feOffset dx="4.0" dy="4.0" in="blurOut2" result="blurOut3"/><feBlend in="SourceGraphic" in2="blurOut3" mode="normal"/></filter></defs><g><line style="stroke: #A80036; stroke-width: 1.0; stroke-dasharray: 5.0,5.0;" x1="25" x2="25" y1="86.2969" y2="830.3516"/><line style="stroke: #A80036; stroke-width: 1.0; stroke-dasharray: 5.0,5.0;" x1="283" x2="283" y1="86.2969" y2="830.3516"/><line style="stroke: #A80036; stroke-width: 1.0; stroke-dasharray: 5.0,5.0;" x1="542.5" x2="542.5" y1="86.2969" y2="830.3516"/><line style="stroke: #A80036; stroke-width: 1.0; stroke-dasharray: 5.0,5.0;" x1="788.5" x2="788.5" y1="86.2969" y2="830.3516"/><line style="stroke: #A80036; stroke-width: 1.0; stroke-dasharray: 5.0,5.0;" x1="1008.5" x2="1008.5" y1="86.2969" y2="830.3516"/><text fill="#000000" font-family="sans-serif" font-size="14" lengthAdjust="spacingAndGlyphs" textLength="28" x="8" y="82.9951">用户</text><ellipse cx="25" cy="13" fill="#FEFECE" filter="url(#f1umviutdct195)" rx="8" ry="8" style="stroke: #A80036; stroke-width: 2.0;"/><path d="M25,21 L25,48 M12,29 L38,29 M25,48 L12,63 M25,48 L38,63 " fill="none" filter="url(#f1umviutdct195)" style="stroke: #A80036; stroke-width: 2.0;"/><rect fill="#FEFECE" filter="url(#f1umviutdct195)" height="30.2969" style="stroke: #A80036; stroke-width: 1.5;" width="84" x="239" y="51"/><text fill="#000000" font-family="sans-serif" font-size="14" lengthAdjust="spacingAndGlyphs" textLength="70" x="246" y="70.9951">BaseForm</text><rect fill="#FEFECE" filter="url(#f1umviutdct195)" height="30.2969" style="stroke: #A80036; stroke-width: 1.5;" width="49" x="516.5" y="51"/><text fill="#000000" font-family="sans-serif" font-size="14" lengthAdjust="spacingAndGlyphs" textLength="35" x="523.5" y="70.9951">Form</text><rect fill="#FEFECE" filter="url(#f1umviutdct195)" height="30.2969" style="stroke: #A80036; stroke-width: 1.5;" width="91" x="741.5" y="51"/><text fill="#000000" font-family="sans-serif" font-size="14" lengthAdjust="spacingAndGlyphs" textLength="77" x="748.5" y="70.9951">FieldsStore</text><rect fill="#FEFECE" filter="url(#f1umviutdct195)" height="30.2969" style="stroke: #A80036; stroke-width: 1.5;" width="79" x="967.5" y="51"/><text fill="#000000" font-family="sans-serif" font-size="14" lengthAdjust="spacingAndGlyphs" textLength="65" x="974.5" y="70.9951">FormItem</text><rect fill="#EEEEEE" filter="url(#f1umviutdct195)" height="3" style="stroke: #EEEEEE; stroke-width: 1.0;" width="1052.5" x="3" y="116.8633"/><line style="stroke: #000000; stroke-width: 1.0;" x1="3" x2="1055.5" y1="116.8633" y2="116.8633"/><line style="stroke: #000000; stroke-width: 1.0;" x1="3" x2="1055.5" y1="119.8633" y2="119.8633"/><rect fill="#EEEEEE" filter="url(#f1umviutdct195)" height="23.1328" style="stroke: #000000; stroke-width: 2.0;" width="89" x="484.75" y="106.2969"/><text fill="#000000" font-family="sans-serif" font-size="13" font-weight="bold" lengthAdjust="spacingAndGlyphs" textLength="70" x="490.75" y="122.3638">初始化组件</text><polygon fill="#A80036" points="271,156.5625,281,160.5625,271,164.5625,275,160.5625" style="stroke: #A80036; stroke-width: 1.0;"/><line style="stroke: #A80036; stroke-width: 1.0;" x1="25" x2="277" y1="160.5625" y2="160.5625"/><text fill="#000000" font-family="sans-serif" font-size="13" lengthAdjust="spacingAndGlyphs" textLength="106" x="32" y="155.4966">createBaseForm</text><polygon fill="#A80036" points="531,185.6953,541,189.6953,531,193.6953,535,189.6953" style="stroke: #A80036; stroke-width: 1.0;"/><line style="stroke: #A80036; stroke-width: 1.0;" x1="283" x2="537" y1="189.6953" y2="189.6953"/><text fill="#000000" font-family="sans-serif" font-size="13" lengthAdjust="spacingAndGlyphs" textLength="123" x="290" y="184.6294">HOC 注入 form 属性</text><polygon fill="#A80036" points="531,214.8281,541,218.8281,531,222.8281,535,218.8281" style="stroke: #A80036; stroke-width: 1.0;"/><line style="stroke: #A80036; stroke-width: 1.0;" x1="25" x2="537" y1="218.8281" y2="218.8281"/><text fill="#000000" font-family="sans-serif" font-size="13" lengthAdjust="spacingAndGlyphs" textLength="93" x="32" y="213.7622">使用 Form 组件</text><polygon fill="#A80036" points="777,243.9609,787,247.9609,777,251.9609,781,247.9609" style="stroke: #A80036; stroke-width: 1.0;"/><line style="stroke: #A80036; stroke-width: 1.0;" x1="543" x2="783" y1="247.9609" y2="247.9609"/><text fill="#000000" font-family="sans-serif" font-size="13" lengthAdjust="spacingAndGlyphs" textLength="222" x="550" y="242.895">getInitialState 时 createFieldsStore</text><polygon fill="#A80036" points="294,273.0938,284,277.0938,294,281.0938,290,277.0938" style="stroke: #A80036; stroke-width: 1.0;"/><line style="stroke: #A80036; stroke-width: 1.0;" x1="288" x2="788" y1="277.0938" y2="277.0938"/><text fill="#000000" font-family="sans-serif" font-size="13" lengthAdjust="spacingAndGlyphs" textLength="195" x="300" y="272.0278">返回一系列表单的数据和操作方法</text><polygon fill="#A80036" points="997,302.2266,1007,306.2266,997,310.2266,1001,306.2266" style="stroke: #A80036; stroke-width: 1.0;"/><line style="stroke: #A80036; stroke-width: 1.0;" x1="25" x2="1003" y1="306.2266" y2="306.2266"/><text fill="#000000" font-family="sans-serif" font-size="13" lengthAdjust="spacingAndGlyphs" textLength="122" x="32" y="301.1606">使用 FormItem 组件</text><polygon fill="#A80036" points="997,331.3594,1007,335.3594,997,339.3594,1001,335.3594" style="stroke: #A80036; stroke-width: 1.0;"/><line style="stroke: #A80036; stroke-width: 1.0;" x1="283" x2="1003" y1="335.3594" y2="335.3594"/><text fill="#000000" font-family="sans-serif" font-size="13" lengthAdjust="spacingAndGlyphs" textLength="396" x="290" y="330.2935">getFieldDecorator 包装组件，使用 getFieldProps 获取 fields 信息</text><polygon fill="#A80036" points="800,360.4922,790,364.4922,800,368.4922,796,364.4922" style="stroke: #A80036; stroke-width: 1.0;"/><line style="stroke: #A80036; stroke-width: 1.0;" x1="794" x2="1008" y1="364.4922" y2="364.4922"/><text fill="#000000" font-family="sans-serif" font-size="13" lengthAdjust="spacingAndGlyphs" textLength="196" x="806" y="359.4263">将字段信息保存在 FieldsStore 中</text><polygon fill="#A80036" points="294,389.625,284,393.625,294,397.625,290,393.625" style="stroke: #A80036; stroke-width: 1.0;"/><line style="stroke: #A80036; stroke-width: 1.0;" x1="288" x2="788" y1="393.625" y2="393.625"/><text fill="#000000" font-family="sans-serif" font-size="13" lengthAdjust="spacingAndGlyphs" textLength="171" x="300" y="388.5591">saveRef 缓存表单项组件实例</text><polygon fill="#A80036" points="271,418.7578,281,422.7578,271,426.7578,275,422.7578" style="stroke: #A80036; stroke-width: 1.0;"/><line style="stroke: #A80036; stroke-width: 1.0;" x1="25" x2="277" y1="422.7578" y2="422.7578"/><text fill="#000000" font-family="sans-serif" font-size="13" lengthAdjust="spacingAndGlyphs" textLength="203" x="32" y="417.6919">componentDidMount 组件实例化</text><polygon fill="#A80036" points="777,447.8906,787,451.8906,777,455.8906,781,451.8906" style="stroke: #A80036; stroke-width: 1.0;"/><line style="stroke: #A80036; stroke-width: 1.0;" x1="283" x2="783" y1="451.8906" y2="451.8906"/><text fill="#000000" font-family="sans-serif" font-size="13" lengthAdjust="spacingAndGlyphs" textLength="289" x="290" y="446.8247">cleanUpUseLessFields 清除未渲染的表单项数据</text><polygon fill="#A80036" points="271,477.0234,281,481.0234,271,485.0234,275,481.0234" style="stroke: #A80036; stroke-width: 1.0;"/><line style="stroke: #A80036; stroke-width: 1.0;" x1="25" x2="277" y1="481.0234" y2="481.0234"/><text fill="#000000" font-family="sans-serif" font-size="13" lengthAdjust="spacingAndGlyphs" textLength="234" x="32" y="475.9575">componentWillReceiveProps 组件更新</text><polygon fill="#A80036" points="777,506.1563,787,510.1563,777,514.1563,781,510.1563" style="stroke: #A80036; stroke-width: 1.0;"/><line style="stroke: #A80036; stroke-width: 1.0;" x1="283" x2="783" y1="510.1563" y2="510.1563"/><text fill="#000000" font-family="sans-serif" font-size="13" lengthAdjust="spacingAndGlyphs" textLength="178" x="290" y="505.0903">updateFields 更新 fields 数据</text><rect fill="#EEEEEE" filter="url(#f1umviutdct195)" height="3" style="stroke: #EEEEEE; stroke-width: 1.0;" width="1052.5" x="3" y="538.7227"/><line style="stroke: #000000; stroke-width: 1.0;" x1="3" x2="1055.5" y1="538.7227" y2="538.7227"/><line style="stroke: #000000; stroke-width: 1.0;" x1="3" x2="1055.5" y1="541.7227" y2="541.7227"/><rect fill="#EEEEEE" filter="url(#f1umviutdct195)" height="23.1328" style="stroke: #000000; stroke-width: 2.0;" width="131" x="463.75" y="528.1563"/><text fill="#000000" font-family="sans-serif" font-size="13" font-weight="bold" lengthAdjust="spacingAndGlyphs" textLength="112" x="469.75" y="544.2231">用户触发表单更改</text><polygon fill="#A80036" points="997,578.4219,1007,582.4219,997,586.4219,1001,582.4219" style="stroke: #A80036; stroke-width: 1.0;"/><line style="stroke: #A80036; stroke-width: 1.0;" x1="25" x2="1003" y1="582.4219" y2="582.4219"/><text fill="#000000" font-family="sans-serif" font-size="13" lengthAdjust="spacingAndGlyphs" textLength="117" x="32" y="577.356">触发某个表单项修改</text><polygon fill="#A80036" points="294,607.5547,284,611.5547,294,615.5547,290,611.5547" style="stroke: #A80036; stroke-width: 1.0;"/><line style="stroke: #A80036; stroke-width: 1.0;" x1="288" x2="1008" y1="611.5547" y2="611.5547"/><text fill="#000000" font-family="sans-serif" font-size="13" lengthAdjust="spacingAndGlyphs" textLength="334" x="300" y="606.4888">执行 onCollect、onCollectValidate,收集数据、校验表单</text><line style="stroke: #A80036; stroke-width: 1.0;" x1="283" x2="325" y1="640.6875" y2="640.6875"/><line style="stroke: #A80036; stroke-width: 1.0;" x1="325" x2="325" y1="640.6875" y2="653.6875"/><line style="stroke: #A80036; stroke-width: 1.0;" x1="284" x2="325" y1="653.6875" y2="653.6875"/><polygon fill="#A80036" points="294,649.6875,284,653.6875,294,657.6875,290,653.6875" style="stroke: #A80036; stroke-width: 1.0;"/><text fill="#000000" font-family="sans-serif" font-size="13" lengthAdjust="spacingAndGlyphs" textLength="246" x="290" y="635.6216">执行 validateFieldsInternal 拿到校验信息</text><polygon fill="#A80036" points="777,678.8203,787,682.8203,777,686.8203,781,682.8203" style="stroke: #A80036; stroke-width: 1.0;"/><line style="stroke: #A80036; stroke-width: 1.0;" x1="283" x2="783" y1="682.8203" y2="682.8203"/><text fill="#000000" font-family="sans-serif" font-size="13" lengthAdjust="spacingAndGlyphs" textLength="93" x="290" y="677.7544">更新 fields 数据</text><polygon fill="#A80036" points="294,707.9531,284,711.9531,294,715.9531,290,711.9531" style="stroke: #A80036; stroke-width: 1.0;"/><line style="stroke: #A80036; stroke-width: 1.0;" x1="288" x2="788" y1="711.9531" y2="711.9531"/><text fill="#000000" font-family="sans-serif" font-size="13" lengthAdjust="spacingAndGlyphs" textLength="135" x="300" y="706.8872">forceUpdate 更新表单</text><polygon fill="#A80036" points="997,737.0859,1007,741.0859,997,745.0859,1001,741.0859" style="stroke: #A80036; stroke-width: 1.0;"/><line style="stroke: #A80036; stroke-width: 1.0;" x1="283" x2="1003" y1="741.0859" y2="741.0859"/><text fill="#000000" font-family="sans-serif" font-size="13" lengthAdjust="spacingAndGlyphs" textLength="294" x="290" y="736.02">重新执行 getFieldsDecorator，表单项渲染最新值</text><line style="stroke: #A80036; stroke-width: 1.0;" x1="283" x2="325" y1="770.2188" y2="770.2188"/><line style="stroke: #A80036; stroke-width: 1.0;" x1="325" x2="325" y1="770.2188" y2="783.2188"/><line style="stroke: #A80036; stroke-width: 1.0;" x1="284" x2="325" y1="783.2188" y2="783.2188"/><polygon fill="#A80036" points="294,779.2188,284,783.2188,294,787.2188,290,783.2188" style="stroke: #A80036; stroke-width: 1.0;"/><text fill="#000000" font-family="sans-serif" font-size="13" lengthAdjust="spacingAndGlyphs" textLength="141" x="290" y="765.1528">componentDidUpdate</text><polygon fill="#A80036" points="777,808.3516,787,812.3516,777,816.3516,781,812.3516" style="stroke: #A80036; stroke-width: 1.0;"/><line style="stroke: #A80036; stroke-width: 1.0;" x1="283" x2="783" y1="812.3516" y2="812.3516"/><text fill="#000000" font-family="sans-serif" font-size="13" lengthAdjust="spacingAndGlyphs" textLength="289" x="290" y="807.2856">cleanUpUseLessFields 清除未渲染的表单项数据</text></g></svg>